<svg width="399" height="399" xmlns="http://www.w3.org/2000/svg" xmlns:xlink="http://www.w3.org/1999/xlink" overflow="hidden"><defs><clipPath id="clip0"><path d="M212 109 611 109 611 508 212 508Z" fill-rule="evenodd" clip-rule="evenodd"/></clipPath></defs><g clip-path="url(#clip0)" transform="translate(-212 -109)"><path d="M308.5 309C308.5 230.299 354.615 166.5 411.5 166.5 468.385 166.5 514.5 230.299 514.5 309 514.5 387.701 468.385 451.5 411.5 451.5 354.615 451.5 308.5 387.701 308.5 309Z" stroke="#4472C4" stroke-width="0.666667" stroke-miterlimit="8" fill="none" fill-rule="evenodd"/><path d="M392.5 309C392.5 230.299 401.23 166.5 412 166.5 422.77 166.5 431.5 230.299 431.5 309 431.5 387.701 422.77 451.5 412 451.5 401.23 451.5 392.5 387.701 392.5 309Z" stroke="#4472C4" stroke-width="0.666667" stroke-miterlimit="8" fill="none" fill-rule="evenodd"/><path d="M270.5 309C270.5 230.299 334.076 166.5 412.5 166.5 490.924 166.5 554.5 230.299 554.5 309 554.5 387.701 490.924 451.5 412.5 451.5 334.076 451.5 270.5 387.701 270.5 309Z" stroke="#4472C4" stroke-width="0.666667" stroke-miterlimit="8" fill="none" fill-rule="evenodd"/><path d="M412.5 206.5C491.477 206.5 555.5 252.615 555.5 309.5 555.5 366.385 491.477 412.5 412.5 412.5 333.523 412.5 269.5 366.385 269.5 309.5 269.5 252.615 333.523 206.5 412.5 206.5Z" stroke="#4472C4" stroke-width="0.666667" stroke-miterlimit="8" fill="none" fill-rule="evenodd"/><path d="M412.5 240.5C491.477 240.5 555.5 271.169 555.5 309 555.5 346.832 491.477 377.5 412.5 377.5 333.523 377.5 269.5 346.832 269.5 309 269.5 271.169 333.523 240.5 412.5 240.5Z" stroke="#4472C4" stroke-width="0.666667" stroke-miterlimit="8" fill="none" fill-rule="evenodd"/><path d="M412.5 196.5C491.477 196.5 555.5 246.868 555.5 309 555.5 371.132 491.477 421.5 412.5 421.5 333.523 421.5 269.5 371.132 269.5 309 269.5 246.868 333.523 196.5 412.5 196.5Z" stroke="#4472C4" stroke-width="0.666667" stroke-miterlimit="8" fill="none" fill-rule="evenodd"/><path d="M412.5 267.5C491.477 267.5 555.5 286.08 555.5 309 555.5 331.92 491.477 350.5 412.5 350.5 333.523 350.5 269.5 331.92 269.5 309 269.5 286.08 333.523 267.5 412.5 267.5Z" stroke="#4472C4" stroke-width="0.666667" stroke-miterlimit="8" fill="none" fill-rule="evenodd"/><path d="M0 0 100.822 29.2078" stroke="#4472C4" stroke-width="0.666667" stroke-miterlimit="8" fill="none" fill-rule="evenodd" transform="matrix(-1 -8.74228e-08 -8.74228e-08 1 412.322 309.5)"/><path d="M0 0 19.0192 40.2157" stroke="#4472C4" stroke-width="0.666667" stroke-miterlimit="8" fill="none" fill-rule="evenodd" transform="matrix(-1 -8.74228e-08 -8.74228e-08 1 412.519 309.5)"/><path d="M0 0 17.4184 68.1004" stroke="#4472C4" stroke-width="0.666667" stroke-miterlimit="8" fill="none" fill-rule="evenodd" transform="matrix(-1 -8.74228e-08 -8.74228e-08 1 411.918 309.5)"/><path d="M0 0 21.4457 21.3892" stroke="#4472C4" stroke-width="0.666667" stroke-miterlimit="8" fill="none" fill-rule="evenodd" transform="matrix(-1 -8.74228e-08 -8.74228e-08 1 349.946 371.5)"/><path d="M411.5 309.5 494.404 393.215" stroke="#4472C4" stroke-width="0.666667" stroke-miterlimit="8" fill="none" fill-rule="evenodd"/><path d="M350.5 309C350.5 230.299 378.482 166.5 413 166.5 447.518 166.5 475.5 230.299 475.5 309 475.5 387.701 447.518 451.5 413 451.5 378.482 451.5 350.5 387.701 350.5 309Z" stroke="#4472C4" stroke-width="0.666667" stroke-miterlimit="8" fill="none" fill-rule="evenodd"/><path d="M0 0 101.046 29.2079" stroke="#4472C4" stroke-width="0.666667" stroke-miterlimit="8" fill="none" fill-rule="evenodd" transform="matrix(1 0 0 -1 412.5 308.708)"/><path d="M0 0 61.0313 37.2464" stroke="#4472C4" stroke-width="0.666667" stroke-miterlimit="8" fill="none" fill-rule="evenodd" transform="matrix(1 0 0 -1 412.5 308.746)"/><path d="M0 0 32.5331 122.42" stroke="#4472C4" stroke-width="0.666667" stroke-miterlimit="8" fill="none" fill-rule="evenodd" transform="matrix(1 0 0 -1 412.5 308.92)"/><path d="M412.5 183.5C491.477 183.5 555.5 239.912 555.5 309.5 555.5 379.088 491.477 435.5 412.5 435.5 333.523 435.5 269.5 379.088 269.5 309.5 269.5 239.912 333.523 183.5 412.5 183.5Z" stroke="#4472C4" stroke-width="0.666667" stroke-miterlimit="8" fill="none" fill-rule="evenodd"/><path d="M362.5 309C362.5 230.299 384.662 166.5 412 166.5 439.338 166.5 461.5 230.299 461.5 309 461.5 387.701 439.338 451.5 412 451.5 384.662 451.5 362.5 387.701 362.5 309Z" stroke="#4472C4" stroke-width="0.666667" stroke-miterlimit="8" fill="none" fill-rule="evenodd"/><path d="M398.5 309C398.5 230.299 404.32 166.5 411.5 166.5 418.68 166.5 424.5 230.299 424.5 309 424.5 387.701 418.68 451.5 411.5 451.5 404.32 451.5 398.5 387.701 398.5 309Z" stroke="#4472C4" stroke-width="0.666667" stroke-miterlimit="8" fill="none" fill-rule="evenodd"/><path d="M311 338C325.065 341.347 339.13 344.694 352.63 346.694 366.13 348.694 379.065 349.347 392 350" stroke="#2F528F" stroke-width="2" stroke-miterlimit="8" fill="none" fill-rule="evenodd"/><path d="M315 359C326.807 363.445 338.615 367.89 351.781 370.89 364.948 373.89 379.474 375.445 394 377" stroke="#2F528F" stroke-width="2" stroke-miterlimit="8" fill="none" fill-rule="evenodd"/><path d="M315 360C313.926 355.722 312.852 351.444 312.185 347.778 311.518 344.111 311.259 341.056 311 338" stroke="#2F528F" stroke-width="2" stroke-miterlimit="8" fill="none" fill-rule="evenodd"/><path d="M394 377 393 350" stroke="#2F528F" stroke-width="2" stroke-miterlimit="8" fill="none" fill-rule="evenodd"/><path d="M394 376 399 358" stroke="#2F528F" stroke-width="2" stroke-miterlimit="8" fill="none" fill-rule="evenodd"/><path d="M473 271C472.064 263.172 471.128 255.345 468.729 245.325 466.33 235.304 462.559 220.765 458.604 210.878 454.65 200.991 449.825 193.495 445 186" stroke="#2F528F" stroke-width="2" stroke-miterlimit="8" fill="none" fill-rule="evenodd"/><path d="M512 279C511.265 272.745 510.53 266.49 507.671 257.441 504.812 248.392 498.799 233.114 494.844 224.703 490.889 216.293 487.415 211.928 483.941 206.977 480.467 202.027 477.233 198.513 474 195" stroke="#2F528F" stroke-width="2" stroke-miterlimit="8" fill="none" fill-rule="evenodd"/><path d="M445 186C450.111 187.112 455.221 188.224 460.055 189.724 464.888 191.224 469.444 193.112 474 195" stroke="#2F528F" stroke-width="2" stroke-miterlimit="8" fill="none" fill-rule="evenodd"/><path d="M473 271C479.579 271.917 486.159 272.833 492.659 274.167 499.159 275.5 505.579 277.25 512 279" stroke="#2F528F" stroke-width="2" stroke-miterlimit="8" fill="none" fill-rule="evenodd"/><path d="M445 186 442 195" stroke="#2F528F" stroke-width="2" stroke-miterlimit="8" fill="none" fill-rule="evenodd"/><path d="M412 276.5C490.701 276.5 554.5 290.827 554.5 308.5 554.5 326.173 490.701 340.5 412 340.5 333.299 340.5 269.5 326.173 269.5 308.5 269.5 290.827 333.299 276.5 412 276.5Z" stroke="#4472C4" stroke-width="0.666667" stroke-miterlimit="8" fill="none" fill-rule="evenodd"/><path d="M460 279C458.996 266.933 457.991 254.867 455.93 243.16 453.87 231.453 449.956 216.787 447.635 208.76 445.313 200.733 443.656 197.867 442 195" stroke="#2F528F" stroke-width="2" stroke-miterlimit="8" fill="none" fill-rule="evenodd"/><path d="M461 279 482.48 280.846C488.98 281.513 494.49 282.256 500 283" stroke="#2F528F" stroke-width="2" stroke-miterlimit="8" fill="none" fill-rule="evenodd"/><path d="M460 279 473 271" stroke="#2F528F" stroke-width="2" stroke-miterlimit="8" fill="none" fill-rule="evenodd"/><path d="M500 283 512 279" stroke="#2F528F" stroke-width="2" stroke-miterlimit="8" fill="none" fill-rule="evenodd"/><path d="M350 371 328 392" stroke="#2F528F" stroke-width="2" stroke-miterlimit="8" fill="none" fill-rule="evenodd"/><path d="M494 392.594C481.557 397.795 469.114 402.996 457.511 406.027 445.908 409.058 437.866 410.405 424.383 410.781 410.9 411.158 392.676 411.415 376.612 408.285 360.548 405.155 344.274 398.578 328 392" stroke="#2F528F" stroke-width="2" stroke-miterlimit="8" fill="none" fill-rule="evenodd"/><path d="M451 349C442.273 349.395 433.545 349.79 424.879 349.932 416.212 350.075 407.606 349.965 399 349.855" stroke="#2F528F" stroke-width="2" stroke-miterlimit="8" fill="none" fill-rule="evenodd"/><path d="M494 392 451 349" stroke="#2F528F" stroke-width="2" stroke-miterlimit="8" fill="none" fill-rule="evenodd"/><path d="M334 403C340.759 406.064 347.517 409.127 355.241 411.622 362.966 414.117 371.152 416.412 380.345 417.969 389.537 419.525 401.164 420.743 410.397 420.962 419.629 421.182 427.374 420.423 435.741 419.286 444.109 418.148 451.894 416.731 460.603 414.137 469.313 411.542 478.657 407.63 488 403.718" stroke="#2F528F" stroke-width="2" stroke-miterlimit="8" fill="none" fill-rule="evenodd"/><path d="M494 393C493.132 394.893 492.263 396.786 491.263 398.62 490.263 400.453 489.132 402.226 488 404" stroke="#2F528F" stroke-width="2" stroke-miterlimit="8" fill="none" fill-rule="evenodd"/><path d="M328 392C329.136 394.21 330.272 396.419 331.439 398.253 332.605 400.086 333.803 401.543 335 403" stroke="#2F528F" stroke-width="2" stroke-miterlimit="8" fill="none" fill-rule="evenodd"/><path d="M328 333C339.54 334.557 351.08 336.114 362.58 337.114 374.08 338.114 385.54 338.557 397 339" stroke="#2F528F" stroke-width="2" stroke-miterlimit="8" fill="none" fill-rule="evenodd"/><path d="M311 338 328 333" stroke="#2F528F" stroke-width="2" stroke-miterlimit="8" fill="none" fill-rule="evenodd"/><path d="M393 350 398 339" stroke="#2F528F" stroke-width="2" stroke-miterlimit="8" fill="none" fill-rule="evenodd"/><path d="M398 338 399 358" stroke="#2F528F" stroke-width="2" stroke-miterlimit="8" fill="none" fill-rule="evenodd"/><path d="M269.659 308.5C265.035 303.868 260.411 299.236 259.631 290.341 258.851 281.445 261.674 266.681 264.979 255.129 268.285 243.576 273.781 231.137 279.464 221.024 285.146 210.911 291.497 202.422 299.074 194.449 306.65 186.477 315.824 179.205 324.923 173.189 334.023 167.173 343.976 162.19 353.67 158.351 363.364 154.513 373.28 151.966 383.085 150.158 392.89 148.349 402.695 147.925 412.5 147.5" stroke="#4472C4" stroke-width="0.666667" stroke-miterlimit="8" fill="none" fill-rule="evenodd"/><path d="M10.1587 161C5.53475 156.368 0.910772 151.736 0.130862 142.84-0.649047 133.945 2.1736 119.181 5.47905 107.629 8.78451 96.0759 14.2813 83.6373 19.9637 73.5241 25.6462 63.4108 31.9971 54.9216 39.5738 46.9491 47.1504 38.9766 56.324 31.7054 65.4233 25.6891 74.5226 19.6728 84.4763 14.69 94.1699 10.8514 103.863 7.01276 113.78 4.46606 123.585 2.6575 133.39 0.848934 143.195 0.424467 153 0" stroke="#4472C4" stroke-width="0.666667" stroke-miterlimit="8" fill="none" fill-rule="evenodd" transform="matrix(-1 -8.74228e-08 -8.74228e-08 1 564.5 147.5)"/><path d="M10.1587 162C5.53475 157.339 0.910772 152.678 0.130862 143.728-0.649047 134.777 2.1736 119.922 5.47905 108.297 8.78451 96.6726 14.2813 84.1568 19.9637 73.9807 25.6462 63.8047 31.9971 55.2627 39.5738 47.2407 47.1504 39.2187 56.324 31.9023 65.4233 25.8487 74.5226 19.795 84.4763 14.7812 94.1699 10.9188 103.863 7.05632 113.78 4.4938 123.585 2.674 133.39 0.854207 143.195 0.427104 153 0" stroke="#4472C4" stroke-width="0.666667" stroke-miterlimit="8" fill="none" fill-rule="evenodd" transform="matrix(1 0 0 -1 260.5 470.5)"/><path d="M555.341 308.5C559.965 313.161 564.589 317.822 565.369 326.772 566.149 335.723 563.326 350.578 560.021 362.203 556.716 373.827 551.219 386.343 545.536 396.519 539.854 406.695 533.503 415.237 525.926 423.259 518.35 431.281 509.176 438.598 500.077 444.651 490.977 450.705 481.024 455.719 471.33 459.581 461.637 463.444 451.72 466.006 441.915 467.826 432.11 469.646 422.305 470.073 412.5 470.5" stroke="#4472C4" stroke-width="0.666667" stroke-miterlimit="8" fill="none" fill-rule="evenodd"/><path d="M411.5 165.659C416.161 161.035 420.822 156.411 429.772 155.631 438.723 154.851 453.578 157.674 465.203 160.979 476.827 164.285 489.343 169.781 499.519 175.464 509.695 181.146 518.237 187.497 526.259 195.074 534.281 202.651 541.598 211.824 547.651 220.923 553.705 230.023 558.719 239.976 562.581 249.67 566.444 259.364 569.006 269.28 570.826 279.085 572.646 288.89 573.073 298.695 573.5 308.5" stroke="#4472C4" stroke-width="0.666667" stroke-miterlimit="8" fill="none" fill-rule="evenodd"/><path d="M10.1587 162C5.53475 157.339 0.910772 152.678 0.130862 143.728-0.649047 134.777 2.1736 119.922 5.47905 108.297 8.78451 96.6726 14.2813 84.1568 19.9637 73.9807 25.6462 63.8047 31.9971 55.2627 39.5738 47.2407 47.1504 39.2187 56.324 31.9023 65.4233 25.8487 74.5226 19.795 84.4763 14.7812 94.1699 10.9188 103.863 7.05632 113.78 4.4938 123.585 2.674 133.39 0.854207 143.195 0.427104 153 0" stroke="#4472C4" stroke-width="0.666667" stroke-miterlimit="8" fill="none" fill-rule="evenodd" transform="matrix(-4.37114e-08 -1 -1 4.37114e-08 573.5 461.5)"/><path d="M10.1587 162C5.53475 157.339 0.910772 152.678 0.130862 143.728-0.649047 134.777 2.1736 119.922 5.47905 108.297 8.78451 96.6726 14.2813 84.1568 19.9637 73.9807 25.6462 63.8047 31.9971 55.2627 39.5738 47.2407 47.1504 39.2187 56.324 31.9023 65.4233 25.8487 74.5226 19.795 84.4763 14.7812 94.1699 10.9188 103.863 7.05632 113.78 4.4938 123.585 2.674 133.39 0.854207 143.195 0.427104 153 0" stroke="#4472C4" stroke-width="0.666667" stroke-miterlimit="8" fill="none" fill-rule="evenodd" transform="matrix(-4.37114e-08 1 1 4.37114e-08 250.5 156.5)"/><path d="M412.5 451.341C407.839 455.965 403.178 460.589 394.228 461.369 385.277 462.149 370.422 459.327 358.797 456.021 347.173 452.716 334.657 447.219 324.481 441.536 314.305 435.854 305.763 429.503 297.741 421.926 289.719 414.35 282.402 405.176 276.349 396.077 270.295 386.977 265.281 377.024 261.419 367.33 257.556 357.637 254.994 347.72 253.174 337.915 251.354 328.11 250.927 318.305 250.5 308.5" stroke="#4472C4" stroke-width="0.666667" stroke-miterlimit="8" fill="none" fill-rule="evenodd"/><path d="M270.209 308.5C260.667 304.27 251.126 300.039 246.642 292.982 242.158 285.925 241.788 277.465 243.307 266.159 244.826 254.853 248.828 239.483 255.757 225.148 262.687 210.813 273.062 192.893 284.883 180.147 296.703 167.4 311.97 156.833 326.681 148.668 341.392 140.503 358.844 134.85 373.148 131.155 387.451 127.461 399.975 126.98 412.5 126.5" stroke="#4472C4" stroke-width="0.666667" stroke-miterlimit="8" fill="none" fill-rule="evenodd"/><path d="M27.546 182C18.0604 177.77 8.57485 173.539 4.11759 166.482-0.339678 159.425-0.708071 150.965 0.802258 139.659 2.31259 128.353 6.29098 112.983 13.1795 98.648 20.0679 84.3126 30.3824 66.3934 42.1334 53.6468 53.8844 40.9002 69.0612 30.3334 83.6855 22.1681 98.3098 14.0029 115.66 8.35 129.879 4.6553 144.098 0.960594 156.549 0.480297 169 0" stroke="#4472C4" stroke-width="0.666667" stroke-miterlimit="8" fill="none" fill-rule="evenodd" transform="matrix(-1 -8.74228e-08 -8.74228e-08 1 581.5 126.5)"/><path d="M27.709 182C18.1672 177.77 8.62559 173.539 4.14195 166.482-0.341688 159.425-0.712261 150.965 0.807005 139.659 2.32627 128.353 6.32821 112.983 13.2574 98.648 20.1867 84.3126 30.5622 66.3934 42.3827 53.6468 54.2033 40.9002 69.4699 30.3334 84.1807 22.1681 98.8916 14.0029 116.344 8.35 130.648 4.6553 144.951 0.960594 157.475 0.480297 170 0" stroke="#4472C4" stroke-width="0.666667" stroke-miterlimit="8" fill="none" fill-rule="evenodd" transform="matrix(1 0 0 -1 241.5 490.5)"/><path d="M553.791 308.5C563.333 312.73 572.874 316.961 577.358 324.018 581.842 331.075 582.212 339.535 580.693 350.841 579.174 362.147 575.172 377.517 568.243 391.852 561.313 406.187 550.938 424.107 539.117 436.853 527.297 449.6 512.03 460.167 497.319 468.332 482.609 476.497 465.156 482.15 450.852 485.845 436.549 489.539 424.025 490.02 411.5 490.5" stroke="#4472C4" stroke-width="0.666667" stroke-miterlimit="8" fill="none" fill-rule="evenodd"/><path d="M411.5 166.209C415.754 156.667 420.007 147.126 427.103 142.642 434.199 138.158 442.706 137.788 454.074 139.307 465.442 140.826 480.896 144.828 495.31 151.758 509.724 158.687 527.742 169.062 540.558 180.883 553.375 192.703 564 207.97 572.21 222.681 580.42 237.392 586.104 254.845 589.819 269.148 593.534 283.451 594.017 295.976 594.5 308.5" stroke="#4472C4" stroke-width="0.666667" stroke-miterlimit="8" fill="none" fill-rule="evenodd"/><path d="M27.709 183C18.1672 178.746 8.62559 174.493 4.14195 167.397-0.341688 160.301-0.712261 151.794 0.807005 140.426 2.32627 129.058 6.32821 113.604 13.2574 99.19 20.1867 84.7759 30.5622 66.7582 42.3827 53.9416 54.2033 41.1249 69.4699 30.5 84.1807 22.2899 98.8916 14.0798 116.344 8.39588 130.648 4.68087 144.951 0.965871 157.475 0.482936 170 0" stroke="#4472C4" stroke-width="0.666667" stroke-miterlimit="8" fill="none" fill-rule="evenodd" transform="matrix(-4.37114e-08 -1 -1 4.37114e-08 594.5 478.5)"/><path d="M27.8719 183C18.2741 178.746 8.67633 174.493 4.16632 167.397-0.343698 160.301-0.716451 151.794 0.811752 140.426 2.33995 129.058 6.36543 113.604 13.3354 99.19 20.3054 84.7759 30.742 66.7582 42.632 53.9416 54.5221 41.1249 69.8785 30.5 84.6759 22.2899 99.4733 14.0798 117.029 8.39588 131.416 4.68087 145.803 0.965871 158.402 0.482936 171 0" stroke="#4472C4" stroke-width="0.666667" stroke-miterlimit="8" fill="none" fill-rule="evenodd" transform="matrix(-4.37114e-08 1 1 4.37114e-08 229.5 137.5)"/><path d="M412.5 449.791C408.246 459.333 403.993 468.875 396.897 473.358 389.801 477.842 381.294 478.212 369.926 476.693 358.558 475.174 343.104 471.172 328.69 464.243 314.276 457.313 296.258 446.938 283.442 435.117 270.625 423.297 260 408.03 251.79 393.319 243.58 378.609 237.896 361.156 234.181 346.852 230.466 332.549 229.983 320.025 229.5 307.5" stroke="#4472C4" stroke-width="0.666667" stroke-miterlimit="8" fill="none" fill-rule="evenodd"/><path d="M270.033 308.5C252.667 304.586 235.301 300.672 228.017 292.361 220.733 284.051 223.872 271.927 226.327 258.639 228.782 245.35 234.939 227.686 242.747 212.631 250.554 197.577 261.139 181.037 273.172 168.31 285.205 155.584 300.176 144.825 314.946 136.274 329.716 127.723 345.532 121.299 361.791 117.004 378.05 112.708 395.275 111.604 412.5 110.5" stroke="#4472C4" stroke-width="0.666667" stroke-miterlimit="8" fill="none" fill-rule="evenodd"/><path d="M46.5327 199C29.167 195.066 11.8013 191.132 4.51706 182.78-2.76733 174.428 0.371745 162.242 2.82671 148.887 5.28168 135.531 11.4392 117.778 19.2466 102.647 27.0541 87.5164 37.6387 70.8927 49.6719 58.1022 61.7051 45.3116 76.6763 34.4982 91.4462 25.9039 106.216 17.3096 122.032 10.8538 138.291 6.53648 154.55 2.21915 171.775 1.10957 189 0" stroke="#4472C4" stroke-width="0.666667" stroke-miterlimit="8" fill="none" fill-rule="evenodd" transform="matrix(-1 -8.74228e-08 -8.74228e-08 1 600.5 110.5)"/><path d="M46.7789 199C29.3213 195.066 11.8638 191.132 4.54096 182.78-2.78197 174.428 0.373712 162.242 2.84167 148.887 5.30962 135.531 11.4997 117.778 19.3485 102.647 27.1973 87.5164 37.8379 70.8927 49.9347 58.1022 62.0316 45.3116 77.082 34.4982 91.93 25.9039 106.778 17.3096 122.678 10.8538 139.023 6.53648 155.368 2.21915 172.684 1.10957 190 0" stroke="#4472C4" stroke-width="0.666667" stroke-miterlimit="8" fill="none" fill-rule="evenodd" transform="matrix(1 0 0 -1 223.5 507.5)"/><path d="M555.721 308.5C573.179 312.434 590.636 316.368 597.959 324.72 605.282 333.072 602.126 345.258 599.658 358.613 597.19 371.969 591 389.722 583.152 404.853 575.303 419.984 564.662 436.607 552.565 449.398 540.468 462.188 525.418 473.002 510.57 481.596 495.722 490.19 479.822 496.646 463.477 500.964 447.132 505.281 429.816 506.39 412.5 507.5" stroke="#4472C4" stroke-width="0.666667" stroke-miterlimit="8" fill="none" fill-rule="evenodd"/><path d="M412.5 166.033C416.414 148.667 420.329 131.301 428.639 124.017 436.949 116.733 449.073 119.872 462.361 122.327 475.65 124.782 493.314 130.939 508.369 138.747 523.423 146.554 539.964 157.139 552.69 169.172 565.416 181.205 576.175 196.176 584.726 210.946 593.277 225.716 599.701 241.533 603.996 257.791 608.292 274.05 609.396 291.275 610.5 308.5" stroke="#4472C4" stroke-width="0.666667" stroke-miterlimit="8" fill="none" fill-rule="evenodd"/><path d="M46.5327 199C29.167 195.066 11.8013 191.132 4.51706 182.78-2.76733 174.428 0.371745 162.242 2.82671 148.887 5.28168 135.531 11.4392 117.778 19.2466 102.647 27.0541 87.5164 37.6387 70.8927 49.6719 58.1022 61.7051 45.3116 76.6763 34.4982 91.4462 25.9039 106.216 17.3096 122.032 10.8538 138.291 6.53648 154.55 2.21915 171.775 1.10957 189 0" stroke="#4472C4" stroke-width="0.666667" stroke-miterlimit="8" fill="none" fill-rule="evenodd" transform="matrix(-4.37114e-08 -1 -1 4.37114e-08 610.5 496.5)"/><path d="M46.7789 199C29.3213 195.066 11.8638 191.132 4.54096 182.78-2.78197 174.428 0.373712 162.242 2.84167 148.887 5.30962 135.531 11.4997 117.778 19.3485 102.647 27.1973 87.5164 37.8379 70.8927 49.9347 58.1022 62.0316 45.3116 77.082 34.4982 91.93 25.9039 106.778 17.3096 122.678 10.8538 139.023 6.53648 155.368 2.21915 172.684 1.10957 190 0" stroke="#4472C4" stroke-width="0.666667" stroke-miterlimit="8" fill="none" fill-rule="evenodd" transform="matrix(-4.37114e-08 1 1 4.37114e-08 213.5 119.5)"/><path d="M412.5 451.721C408.566 469.179 404.632 486.636 396.28 493.959 387.928 501.282 375.742 498.126 362.387 495.658 349.031 493.19 331.278 487 316.147 479.152 301.016 471.303 284.393 460.662 271.602 448.565 258.812 436.469 247.998 421.418 239.404 406.57 230.81 391.722 224.354 375.822 220.036 359.477 215.719 343.132 214.61 325.816 213.5 308.5" stroke="#4472C4" stroke-width="0.666667" stroke-miterlimit="8" fill="none" fill-rule="evenodd"/><path d="M412.5 309.5 510.542 481.798" stroke="#4472C4" stroke-width="0.666667" stroke-miterlimit="8" fill="none" fill-rule="evenodd"/><path d="M0 0 15.7816 184.807" stroke="#4472C4" stroke-width="0.666667" stroke-miterlimit="8" fill="none" fill-rule="evenodd" transform="matrix(-1 -8.74228e-08 -8.74228e-08 1 412.282 309.5)"/><path d="M412.5 309.5 428.232 492.731" stroke="#4472C4" stroke-width="0.666667" stroke-miterlimit="8" fill="none" fill-rule="evenodd"/><path d="M398 472C402.611 472.949 407.223 473.897 411.89 473.992 416.556 474.087 421.278 473.328 426 472.569" stroke="#2F528F" stroke-width="2" stroke-miterlimit="8" fill="none" fill-rule="evenodd"/><path d="M0 0 97.2174 172.406" stroke="#4472C4" stroke-width="0.666667" stroke-miterlimit="8" fill="none" fill-rule="evenodd" transform="matrix(-1 -8.74228e-08 -8.74228e-08 1 412.717 309.5)"/><path d="M325 462.84C341.824 470.242 358.647 477.644 374.594 481.478 390.541 485.312 405.542 486.459 420.682 485.843 435.822 485.228 452.214 481.758 465.434 477.784 478.654 473.81 489.327 467.905 500 462" stroke="#2F528F" stroke-width="2" stroke-miterlimit="8" fill="none" fill-rule="evenodd"/><path d="M398 472.394C396.562 473.603 395.124 474.811 392.691 475.69 390.258 476.569 386.829 477.366 383.4 477.668 379.971 477.97 377.814 478.3 372.118 477.503 366.422 476.707 357.076 475.306 349.223 472.889 341.37 470.471 333.185 466.736 325 463" stroke="#2F528F" stroke-width="2" stroke-miterlimit="8" fill="none" fill-rule="evenodd"/><path d="M74 9.39422C72.5424 10.6028 71.0848 11.8114 68.6182 12.6905 66.1515 13.5695 62.6757 14.3661 59.2 14.6682 55.7243 14.9703 53.5379 15.3 47.7636 14.5034 41.9894 13.7068 32.5152 12.3059 24.5545 9.88871 16.5939 7.4715 8.2969 3.7357 0 0" stroke="#2F528F" stroke-width="2" stroke-miterlimit="8" fill="none" fill-rule="evenodd" transform="matrix(-1 -8.74228e-08 -8.74228e-08 1 499 463)"/><path d="M325 463 316 479" stroke="#2F528F" stroke-width="2" stroke-miterlimit="8" fill="none" fill-rule="evenodd"/><path d="M499 461 509 478" stroke="#2F528F" stroke-width="2" stroke-miterlimit="8" fill="none" fill-rule="evenodd"/><path d="M316 478.534C331.361 485.625 346.722 492.715 362.833 496.779 378.944 500.842 394.083 503.514 412.667 502.917 431.25 502.32 458.444 497.518 474.333 493.198 490.222 488.878 499.111 482.939 508 477" stroke="#2F528F" stroke-width="2" stroke-miterlimit="8" fill="none" fill-rule="evenodd"/><path d="M411.749 309.249 218.5 296.5" stroke="#4472C4" stroke-width="0.666667" stroke-miterlimit="8" fill="none" fill-rule="evenodd"/><path d="M411.465 309.212 241.5 213.5" stroke="#4472C4" stroke-width="0.666667" stroke-miterlimit="8" fill="none" fill-rule="evenodd"/><path d="M257 223 241 213" stroke="#2F528F" stroke-width="2" stroke-miterlimit="8" fill="none" fill-rule="evenodd"/><path d="M413.067 309.852 248.5 295.5" stroke="#4472C4" stroke-width="0.666667" stroke-miterlimit="8" fill="none" fill-rule="evenodd"/><path d="M246.896 246C245.424 251.694 243.953 257.388 243.143 262.968 242.334 268.549 241.855 275.11 242.039 279.484 242.223 283.858 243.253 286.46 244.247 289.213 245.24 291.965 246.62 293.983 248 296" stroke="#2F528F" stroke-width="2" stroke-miterlimit="8" fill="none" fill-rule="evenodd"/><path d="M235 298C237.055 298.939 239.109 299.879 241.109 300.545 243.109 301.212 245.055 301.606 247 302" stroke="#2F528F" stroke-width="2" stroke-miterlimit="8" fill="none" fill-rule="evenodd"/><path d="M218 296C218.434 288.714 218.868 281.429 220.387 273.203 221.906 264.977 224.618 254.574 227.113 246.643 229.609 238.712 233.044 231.223 235.359 225.616 237.673 220.009 239.336 216.504 241 213" stroke="#2F528F" stroke-width="2" stroke-miterlimit="8" fill="none" fill-rule="evenodd"/><path d="M234 298C234.364 292.675 234.728 287.349 236.3 280.027 237.872 272.704 239.98 263.57 243.43 254.065 246.88 244.561 251.94 233.78 257 223" stroke="#2F528F" stroke-width="2" stroke-miterlimit="8" fill="none" fill-rule="evenodd"/><path d="M246 302 248 295" stroke="#2F528F" stroke-width="2" stroke-miterlimit="8" fill="none" fill-rule="evenodd"/><path d="M411.871 309.683 238.5 302.5" stroke="#4472C4" stroke-width="0.666667" stroke-miterlimit="8" fill="none" fill-rule="evenodd"/><path d="M246 303 238 302" stroke="#2F528F" stroke-width="2" stroke-miterlimit="8" fill="none" fill-rule="evenodd"/><path d="M238 303C232.229 301.609 226.457 300.218 223.124 299.051 219.791 297.885 218.895 296.942 218 296" stroke="#2F528F" stroke-width="2" stroke-miterlimit="8" fill="none" fill-rule="evenodd"/><path d="M235.5 297.5 218.5 296.5" stroke="#2F528F" stroke-width="1.33333" stroke-miterlimit="8" fill="none" fill-rule="evenodd"/></g></svg>