<svg width="424" height="423" xmlns="http://www.w3.org/2000/svg" xmlns:xlink="http://www.w3.org/1999/xlink" overflow="hidden"><defs><clipPath id="clip0"><path d="M199 97 623 97 623 520 199 520Z" fill-rule="evenodd" clip-rule="evenodd"/></clipPath></defs><g clip-path="url(#clip0)" transform="translate(-199 -97)"><path d="M0 0 192.211 76.0433" stroke="#4472C4" stroke-width="0.666667" stroke-miterlimit="8" fill="none" fill-rule="evenodd" transform="matrix(-1 -8.74228e-08 -8.74228e-08 1 409.711 157.5)"/><path d="M410.5 157.5 602.711 233.543" stroke="#4472C4" stroke-width="0.666667" stroke-miterlimit="8" fill="none" fill-rule="evenodd"/><path d="M0 0 0.000104987 319.87" stroke="#4472C4" stroke-width="0.666667" stroke-miterlimit="8" fill="none" fill-rule="evenodd" transform="matrix(1 0 0 -1 410.5 477.371)"/><path d="M409.767 478.056 377.5 170.5" stroke="#4472C4" stroke-width="0.666667" stroke-miterlimit="8" fill="none" fill-rule="evenodd"/><path d="M0 0 192.211 42.3951" stroke="#4472C4" stroke-width="0.666667" stroke-miterlimit="8" fill="none" fill-rule="evenodd" transform="matrix(-1 -8.74228e-08 -8.74228e-08 1 409.711 191.5)"/><path d="M410.5 191.5 602.711 233.895" stroke="#4472C4" stroke-width="0.666667" stroke-miterlimit="8" fill="none" fill-rule="evenodd"/><path d="M0 0 54.5055 298.222" stroke="#4472C4" stroke-width="0.666667" stroke-miterlimit="8" fill="none" fill-rule="evenodd" transform="matrix(1 0 0 -1 409.5 477.722)"/><path d="M0 0 242.167 31.2839" stroke="#4472C4" stroke-width="0.666667" stroke-miterlimit="8" fill="none" fill-rule="evenodd" transform="matrix(-1 -8.74228e-08 -8.74228e-08 1 459.667 202.5)"/><path d="M380.5 198.5 602.144 234.506" stroke="#4472C4" stroke-width="0.666667" stroke-miterlimit="8" fill="none" fill-rule="evenodd"/><path d="M342.089 276.994 217.5 234.5" stroke="#4472C4" stroke-width="0.666667" stroke-miterlimit="8" fill="none" fill-rule="evenodd"/><path d="M410.017 477.833 342.5 276.5" stroke="#4472C4" stroke-width="0.666667" stroke-miterlimit="8" fill="none" fill-rule="evenodd"/><path d="M0 0 259.833 42.494" stroke="#4472C4" stroke-width="0.666667" stroke-miterlimit="8" fill="none" fill-rule="evenodd" transform="matrix(1 0 0 -1 342.5 276.994)"/><path d="M365.883 347.661 217.5 234.5" stroke="#4472C4" stroke-width="0.666667" stroke-miterlimit="8" fill="none" fill-rule="evenodd"/><path d="M0 0 236.039 112.913" stroke="#4472C4" stroke-width="0.666667" stroke-miterlimit="8" fill="none" fill-rule="evenodd" transform="matrix(1 0 0 -1 366.5 347.413)"/><path d="M409.722 478.321 380.5 270.5" stroke="#4472C4" stroke-width="0.666667" stroke-miterlimit="8" fill="none" fill-rule="evenodd"/><path d="M380.383 269.754 217.5 233.5" stroke="#4472C4" stroke-width="0.666667" stroke-miterlimit="8" fill="none" fill-rule="evenodd"/><path d="M0 0 311.8 24.2463" stroke="#4472C4" stroke-width="0.666667" stroke-miterlimit="8" fill="none" fill-rule="evenodd" transform="matrix(1 0 0 -1 290.5 258.746)"/><path d="M409.984 477.647 290.5 258.5" stroke="#4472C4" stroke-width="0.666667" stroke-miterlimit="8" fill="none" fill-rule="evenodd"/><path d="M0 0 34.8794 65.8026" stroke="#4472C4" stroke-width="0.666667" stroke-miterlimit="8" fill="none" fill-rule="evenodd" transform="matrix(1 0 0 -1 567.5 299.303)"/><path d="M579.655 275.388 217.5 233.5" stroke="#4472C4" stroke-width="0.666667" stroke-miterlimit="8" fill="none" fill-rule="evenodd"/><path d="M567.148 299.303 217.5 233.5" stroke="#4472C4" stroke-width="0.666667" stroke-miterlimit="8" fill="none" fill-rule="evenodd"/><path d="M0 0 110.864 186.486" stroke="#4472C4" stroke-width="0.666667" stroke-miterlimit="8" fill="none" fill-rule="evenodd" transform="matrix(1 0 0 -1 409.5 477.986)"/><path d="M0 0 156.426 175.171" stroke="#4472C4" stroke-width="0.666667" stroke-miterlimit="8" fill="none" fill-rule="evenodd" transform="matrix(1 0 0 -1 410.5 474.671)"/><path d="M0 0 81.5055 56.2085" stroke="#4472C4" stroke-width="0.666667" stroke-miterlimit="8" fill="none" fill-rule="evenodd" transform="matrix(1 0 0 -1 520.5 290.709)"/><path d="M522.243 350.238 219.5 234.5" stroke="#4472C4" stroke-width="0.666667" stroke-miterlimit="8" fill="none" fill-rule="evenodd"/><path d="M520 290 492 339" stroke="#2F528F" stroke-width="2" stroke-miterlimit="8" fill="none" fill-rule="evenodd"/><path d="M567 299 520 290" stroke="#2F528F" stroke-width="2" stroke-miterlimit="8" fill="none" fill-rule="evenodd"/><path d="M522 350 492 338" stroke="#2F528F" stroke-width="2" stroke-miterlimit="8" fill="none" fill-rule="evenodd"/><path d="M566 299 521 350" stroke="#2F528F" stroke-width="2" stroke-miterlimit="8" fill="none" fill-rule="evenodd"/><path d="M579 275 567 299" stroke="#2F528F" stroke-width="2" stroke-miterlimit="8" fill="none" fill-rule="evenodd"/><path d="M547 272 520 290" stroke="#2F528F" stroke-width="2" stroke-miterlimit="8" fill="none" fill-rule="evenodd"/><path d="M547 272 579 276" stroke="#2F528F" stroke-width="2" stroke-miterlimit="8" fill="none" fill-rule="evenodd"/><path d="M342 276 366 346" stroke="#2F528F" stroke-width="2" stroke-miterlimit="8" fill="none" fill-rule="evenodd"/><path d="M380 270 389 335" stroke="#2F528F" stroke-width="2" stroke-miterlimit="8" fill="none" fill-rule="evenodd"/><path d="M342.5 276.5 380.5 270.5" stroke="#2F528F" stroke-width="1.33333" stroke-miterlimit="8" fill="none" fill-rule="evenodd"/><path d="M366 346 389 335" stroke="#2F528F" stroke-width="2" stroke-miterlimit="8" fill="none" fill-rule="evenodd"/><path d="M290 258 343 276" stroke="#2F528F" stroke-width="2" stroke-miterlimit="8" fill="none" fill-rule="evenodd"/><path d="M318 256 380 270" stroke="#2F528F" stroke-width="2" stroke-miterlimit="8" fill="none" fill-rule="evenodd"/><path d="M290.5 258.5 318.5 256.5" stroke="#2F528F" stroke-width="1.33333" stroke-miterlimit="8" fill="none" fill-rule="evenodd"/><path d="M366 346 319 311" stroke="#2F528F" stroke-width="2" stroke-miterlimit="8" fill="none" fill-rule="evenodd"/><path d="M290 258 319 311" stroke="#2F528F" stroke-width="2" stroke-miterlimit="8" fill="none" fill-rule="evenodd"/><path d="M410 158 410 191" stroke="#2F528F" stroke-width="2" stroke-miterlimit="8" fill="none" fill-rule="evenodd"/><path d="M377 170 380 197" stroke="#2F528F" stroke-width="2" stroke-miterlimit="8" fill="none" fill-rule="evenodd"/><path d="M464 179 460 202" stroke="#2F528F" stroke-width="2" stroke-miterlimit="8" fill="none" fill-rule="evenodd"/><path d="M377 170 410 158" stroke="#2F528F" stroke-width="2" stroke-miterlimit="8" fill="none" fill-rule="evenodd"/><path d="M464 179 409 158" stroke="#2F528F" stroke-width="2" stroke-miterlimit="8" fill="none" fill-rule="evenodd"/><path d="M380 198 410 191" stroke="#2F528F" stroke-width="2" stroke-miterlimit="8" fill="none" fill-rule="evenodd"/><path d="M460 202 410 191" stroke="#2F528F" stroke-width="2" stroke-miterlimit="8" fill="none" fill-rule="evenodd"/><path d="M380 198 432 206" stroke="#2F528F" stroke-width="2" stroke-miterlimit="8" fill="none" fill-rule="evenodd"/><path d="M459 202 431 206" stroke="#2F528F" stroke-width="2" stroke-miterlimit="8" fill="none" fill-rule="evenodd"/></g></svg>