<svg width="835" height="325" xmlns="http://www.w3.org/2000/svg" xmlns:xlink="http://www.w3.org/1999/xlink" overflow="hidden"><defs><clipPath id="clip0"><path d="M222 166 1057 166 1057 491 222 491Z" fill-rule="evenodd" clip-rule="evenodd"/></clipPath></defs><g clip-path="url(#clip0)" transform="translate(-222 -166)"><path d="M614.355 212.058C624.455 211.641 629.209 213.547 635.744 215.632 642.28 217.717 649.469 222.186 653.568 224.569 657.668 226.952 657.846 227.845 660.342 229.93 662.837 232.016 665.154 233.148 668.541 237.08 671.927 241.012 676.978 247.386 680.661 253.523 684.345 259.659 688.029 267.94 690.643 273.897 693.257 279.855 694.505 281.404 696.347 289.268 698.189 297.132 701.04 309.941 701.694 321.082 702.348 332.222 701.991 344.733 700.268 356.112 698.545 367.491 695.574 378.93 691.356 389.355 687.137 399.781 681.671 410.088 674.958 418.667 668.244 427.246 658.619 435.646 651.073 440.829 643.527 446.012 638.299 448.216 629.684 449.765 621.069 451.314 609.364 451.374 599.383 450.123 589.401 448.872 579.776 446.608 569.794 442.259 559.813 437.91 548.999 432.31 539.493 424.029 529.987 415.748 519.292 402.82 512.756 392.573 506.221 382.326 503.072 372.853 500.279 362.546 497.487 352.24 495.942 341.337 496.002 330.733 496.061 320.128 497.428 309.762 500.636 298.919 503.844 288.077 508.36 276.042 515.252 265.676 522.144 255.31 532.007 244.646 541.988 236.722 551.97 228.799 563.14 222.305 575.142 218.134 587.143 213.964 604.255 212.475 614.355 212.058Z" stroke="#2F528F" stroke-width="2" stroke-miterlimit="8" fill="#DAE3F3" fill-rule="evenodd"/><path d="M530 331.5C530 265.502 568.504 212 616 212 663.496 212 702 265.502 702 331.5 702 397.498 663.496 451 616 451 568.504 451 530 397.498 530 331.5Z" stroke="#2F528F" stroke-width="2" stroke-miterlimit="8" fill="none" fill-rule="evenodd"/><path d="M531.5 313.5 700.252 351.262" stroke="#4472C4" stroke-width="0.666667" stroke-miterlimit="8" stroke-dasharray="2.66667 2" fill="none" fill-rule="evenodd"/><path d="M0 0 0.000104987 238.651" stroke="#4472C4" stroke-width="0.666667" stroke-miterlimit="8" stroke-dasharray="2.66667 2" fill="none" fill-rule="evenodd" transform="matrix(1 0 0 -1 615.5 451.151)"/><path d="M613.5 332C613.5 330.619 614.619 329.5 616 329.5 617.381 329.5 618.5 330.619 618.5 332 618.5 333.381 617.381 334.5 616 334.5 614.619 334.5 613.5 333.381 613.5 332Z" stroke="#2F528F" stroke-width="3" stroke-miterlimit="8" fill="#2F5597" fill-rule="evenodd"/><path d="M496 331C496.348 333.172 496.695 335.344 498.566 337.436 500.438 339.528 503.111 341.566 507.228 343.55 511.346 345.535 516.96 347.626 523.269 349.342 529.579 351.059 536.316 352.507 545.085 353.848 553.853 355.188 564.868 356.529 575.883 357.387 586.897 358.245 598.928 358.943 611.172 358.996 623.417 359.05 637.158 358.514 649.349 357.709 661.54 356.905 675.709 355.457 684.318 354.169 692.926 352.882 696.963 351.434 701 349.986" stroke="#2F528F" stroke-width="2" stroke-miterlimit="8" fill="none" fill-rule="evenodd"/><path d="M521.12 352.162C519.829 343.598 523.273 335.98 528.812 335.145 534.351 334.31 539.887 340.576 541.178 349.14 542.468 357.703 539.024 365.322 533.485 366.157 527.946 366.991 522.41 360.726 521.12 352.162Z" stroke="#2F528F" stroke-width="2" stroke-miterlimit="8" fill="#FFFFFF" fill-rule="evenodd"/><path d="M0 0 168.752 37.7616" stroke="#4472C4" stroke-width="0.666667" stroke-miterlimit="8" stroke-dasharray="2.66667 2" fill="none" fill-rule="evenodd" transform="matrix(1 0 0 -1 531.5 351.262)"/><path d="M616 305.5C681.998 305.5 735.5 317.588 735.5 332.5 735.5 347.412 681.998 359.5 616 359.5 550.002 359.5 496.5 347.412 496.5 332.5 496.5 317.588 550.002 305.5 616 305.5Z" stroke="#4472C4" stroke-width="0.666667" stroke-miterlimit="8" stroke-dasharray="2.66667 2" fill="none" fill-rule="evenodd"/><path d="M885.929 209.059C896.079 208.635 900.855 210.573 907.422 212.693 913.99 214.813 921.214 219.356 925.333 221.779 929.453 224.202 929.632 225.111 932.139 227.231 934.647 229.351 936.975 230.502 940.378 234.499 943.781 238.497 948.856 244.978 952.558 251.217 956.259 257.456 959.961 265.876 962.588 271.933 965.215 277.991 966.469 279.566 968.319 287.561 970.17 295.557 973.036 308.58 973.693 319.907 974.349 331.234 973.991 343.955 972.26 355.524 970.528 367.094 967.543 378.723 963.304 389.324 959.065 399.924 953.573 410.403 946.826 419.126 940.08 427.848 930.408 436.389 922.826 441.659 915.244 446.929 909.99 449.17 901.333 450.745 892.676 452.32 880.914 452.38 870.884 451.108 860.854 449.836 851.182 447.534 841.152 443.113 831.122 438.691 820.256 432.997 810.704 424.577 801.152 416.158 790.405 403.013 783.838 392.595 777.271 382.176 774.106 372.545 771.3 362.066 768.494 351.587 766.942 340.502 767.002 329.72 767.061 318.938 768.435 308.398 771.658 297.374 774.882 286.35 779.42 274.114 786.345 263.574 793.271 253.035 803.181 242.192 813.212 234.136 823.242 226.08 834.466 219.477 846.526 215.237 858.586 210.997 875.78 209.483 885.929 209.059Z" stroke="#2F528F" stroke-width="2" stroke-miterlimit="8" fill="#DAE3F3" fill-rule="evenodd"/><path d="M800 330.5C800 263.397 838.951 209 887 209 935.049 209 974 263.397 974 330.5 974 397.603 935.049 452 887 452 838.951 452 800 397.603 800 330.5Z" stroke="#2F528F" stroke-width="2" stroke-miterlimit="8" fill="none" fill-rule="evenodd"/><path d="M802.5 311.5 972.476 349.98" stroke="#4472C4" stroke-width="0.666667" stroke-miterlimit="8" stroke-dasharray="2.66667 2" fill="none" fill-rule="evenodd"/><path d="M0 0 0.000104987 323.178" stroke="#4472C4" stroke-width="0.666667" stroke-miterlimit="8" stroke-dasharray="2.66667 2" fill="none" fill-rule="evenodd" transform="matrix(1 0 0 -1 887.5 490.678)"/><path d="M884.5 331C884.5 329.619 885.619 328.5 887 328.5 888.381 328.5 889.5 329.619 889.5 331 889.5 332.381 888.381 333.5 887 333.5 885.619 333.5 884.5 332.381 884.5 331Z" stroke="#2F528F" stroke-width="3" stroke-miterlimit="8" fill="#2F5597" fill-rule="evenodd"/><path d="M766 330C766.351 332.172 766.702 334.344 768.592 336.436 770.481 338.528 773.181 340.566 777.338 342.55 781.495 344.535 787.164 346.626 793.535 348.342 799.906 350.059 806.709 351.507 815.563 352.848 824.418 354.188 835.54 355.529 846.662 356.387 857.784 357.245 869.932 357.943 882.296 357.996 894.66 358.05 908.535 357.514 920.845 356.709 933.155 355.905 947.462 354.457 956.155 353.169 964.847 351.882 968.924 350.434 973 348.986" stroke="#2F528F" stroke-width="2" stroke-miterlimit="8" fill="none" fill-rule="evenodd"/><path d="M775.282 351.589C771.134 324.063 782.037 299.599 799.635 296.947 817.233 294.295 834.861 314.46 839.009 341.986 843.156 369.513 832.253 393.977 814.655 396.628 797.058 399.28 779.43 379.115 775.282 351.589Z" stroke="#2F528F" stroke-width="2" stroke-miterlimit="8" fill="#FFFFFF" fill-rule="evenodd"/><path d="M0 0 169.976 38.4798" stroke="#4472C4" stroke-width="0.666667" stroke-miterlimit="8" stroke-dasharray="2.66667 2" fill="none" fill-rule="evenodd" transform="matrix(1 0 0 -1 802.5 349.98)"/><path d="M887.5 303.5C953.774 303.5 1007.5 315.812 1007.5 331 1007.5 346.188 953.774 358.5 887.5 358.5 821.226 358.5 767.5 346.188 767.5 331 767.5 315.812 821.226 303.5 887.5 303.5Z" stroke="#4472C4" stroke-width="0.666667" stroke-miterlimit="8" stroke-dasharray="2.66667 2" fill="none" fill-rule="evenodd"/><path d="M886.5 330.5 1056.48 368.98" stroke="#4472C4" stroke-width="0.666667" stroke-miterlimit="8" stroke-dasharray="2.66667 2" fill="none" fill-rule="evenodd"/><path d="M840.409 356C836.398 357.732 832.387 359.463 829.646 361.044 826.904 362.624 825.381 363.969 823.959 365.483 822.538 366.996 821.319 368.643 821.116 370.123 820.913 371.602 820.744 372.779 822.741 374.36 824.738 375.94 828.258 378.16 833.098 379.606 837.939 381.051 843.083 382.329 851.782 383.035 860.481 383.741 871.719 384.28 885.292 383.842 898.865 383.405 917.819 382.094 933.22 380.413 948.621 378.731 964.699 376.142 977.696 373.755 990.694 371.367 1003.49 368.105 1011.21 366.088 1018.92 364.07 1021.46 362.86 1024 361.649" stroke="#2F528F" stroke-width="2" stroke-miterlimit="8" fill="none" fill-rule="evenodd"/><path d="M774 340C770.168 339.49 766.337 338.98 762.556 338.093 758.776 337.206 753.991 336.002 751.317 334.68 748.643 333.359 747.315 331.519 746.515 330.164 745.714 328.809 745.953 327.838 746.515 326.55 747.077 325.262 748.013 323.94 749.886 322.435 751.76 320.929 754.774 319.089 757.754 317.517 760.734 315.944 764.251 314.472 767.767 313" stroke="#2F528F" stroke-width="2" stroke-miterlimit="8" fill="none" fill-rule="evenodd"/><path d="M803.532 295.982C800.585 296.016 797.637 296.05 794.437 295.575 791.236 295.101 787.531 294.66 784.33 293.133 781.13 291.607 777.29 289.3 775.235 286.417 773.18 283.534 772.034 279.802 772.001 275.834 771.967 271.865 773.18 267.048 775.033 262.605 776.885 258.161 779.479 253.853 783.118 249.172 786.756 244.491 791.405 239.335 796.862 234.519 802.32 229.702 808.316 225.123 815.862 220.272 823.408 215.421 834.323 209.146 842.139 205.415 849.954 201.684 855.445 199.954 862.755 197.885 870.066 195.815 878.033 194.408 886 193" stroke="#2F528F" stroke-width="2" stroke-miterlimit="8" fill="none" fill-rule="evenodd"/><path d="M886.5 191.5 892.5 193 886.5 194.5Z" stroke="#2F528F" stroke-width="1.33333" stroke-miterlimit="8" fill="#4472C4" fill-rule="evenodd"/><path d="M886.2 468.21C840.389 473.216 803.282 453.199 803.32 423.502 803.332 414.488 806.839 405.236 813.52 396.598" stroke="#2F528F" stroke-width="2" stroke-miterlimit="8" fill="none" fill-rule="evenodd"/><path d="M884.5 467.5 890.5 469 884.5 470.5Z" stroke="#2F528F" stroke-width="1.33333" stroke-miterlimit="8" fill="#4472C4" fill-rule="evenodd"/><path d="M1021.64 360.518 1027.37 359.277 1023.39 363.59Z" stroke="#2F528F" stroke-width="1.33333" stroke-miterlimit="8" fill="#4472C4" fill-rule="evenodd"/><path d="M342.355 215.058C352.455 214.641 357.209 216.547 363.744 218.632 370.28 220.717 377.469 225.186 381.568 227.569 385.668 229.952 385.846 230.845 388.342 232.93 390.837 235.016 393.154 236.148 396.541 240.08 399.927 244.012 404.978 250.386 408.661 256.523 412.345 262.659 416.029 270.94 418.643 276.897 421.257 282.855 422.505 284.404 424.347 292.268 426.189 300.132 429.04 312.941 429.694 324.082 430.348 335.222 429.991 347.733 428.268 359.112 426.545 370.491 423.574 381.93 419.356 392.355 415.137 402.781 409.671 413.088 402.958 421.667 396.244 430.246 386.619 438.646 379.073 443.829 371.527 449.012 366.299 451.216 357.684 452.765 349.069 454.314 337.364 454.374 327.383 453.123 317.401 451.872 307.776 449.608 297.794 445.259 287.813 440.91 276.999 435.31 267.493 427.029 257.987 418.748 247.292 405.82 240.756 395.573 234.221 385.326 231.072 375.853 228.279 365.546 225.487 355.24 223.942 344.337 224.002 333.733 224.061 323.128 225.428 312.762 228.636 301.919 231.844 291.077 236.36 279.042 243.252 268.676 250.144 258.31 260.007 247.646 269.988 239.722 279.97 231.799 291.14 225.305 303.142 221.134 315.143 216.964 332.255 215.475 342.355 215.058Z" stroke="#2F528F" stroke-width="2" stroke-miterlimit="8" fill="#DAE3F3" fill-rule="evenodd"/><path d="M257 334.5C257 268.502 295.727 215 343.5 215 391.273 215 430 268.502 430 334.5 430 400.498 391.273 454 343.5 454 295.727 454 257 400.498 257 334.5Z" stroke="#2F528F" stroke-width="2" stroke-miterlimit="8" fill="none" fill-rule="evenodd"/><path d="M259.5 316.5 428.252 354.262" stroke="#4472C4" stroke-width="0.666667" stroke-miterlimit="8" stroke-dasharray="2.66667 2" fill="none" fill-rule="evenodd"/><path d="M0 0 0.000104987 238.651" stroke="#4472C4" stroke-width="0.666667" stroke-miterlimit="8" stroke-dasharray="2.66667 2" fill="none" fill-rule="evenodd" transform="matrix(1 0 0 -1 343.5 454.151)"/><path d="M340.5 335C340.5 333.619 341.843 332.5 343.5 332.5 345.157 332.5 346.5 333.619 346.5 335 346.5 336.381 345.157 337.5 343.5 337.5 341.843 337.5 340.5 336.381 340.5 335Z" stroke="#2F528F" stroke-width="3" stroke-miterlimit="8" fill="#2F5597" fill-rule="evenodd"/><path d="M224 334C224.348 336.172 224.695 338.344 226.567 340.436 228.438 342.528 231.111 344.566 235.228 346.55 239.346 348.535 244.96 350.626 251.269 352.342 257.579 354.059 264.316 355.507 273.085 356.848 281.853 358.188 292.868 359.529 303.883 360.387 314.897 361.245 326.928 361.943 339.172 361.996 351.417 362.05 365.158 361.514 377.349 360.709 389.54 359.905 403.709 358.457 412.318 357.169 420.926 355.882 424.963 354.434 429 352.986" stroke="#2F528F" stroke-width="2" stroke-miterlimit="8" fill="none" fill-rule="evenodd"/><path d="M0 0 168.752 37.7616" stroke="#4472C4" stroke-width="0.666667" stroke-miterlimit="8" stroke-dasharray="2.66667 2" fill="none" fill-rule="evenodd" transform="matrix(1 0 0 -1 259.5 354.262)"/><path d="M344 308.5C409.998 308.5 463.5 320.365 463.5 335 463.5 349.636 409.998 361.5 344 361.5 278.002 361.5 224.5 349.636 224.5 335 224.5 320.365 278.002 308.5 344 308.5Z" stroke="#4472C4" stroke-width="0.666667" stroke-miterlimit="8" stroke-dasharray="2.66667 2" fill="none" fill-rule="evenodd"/></g></svg>