<svg width="424" height="423" xmlns="http://www.w3.org/2000/svg" xmlns:xlink="http://www.w3.org/1999/xlink" overflow="hidden"><defs><clipPath id="clip0"><path d="M199 97 623 97 623 520 199 520Z" fill-rule="evenodd" clip-rule="evenodd"/></clipPath></defs><g clip-path="url(#clip0)" transform="translate(-199 -97)"><path d="M271.14 360.58 212.5 314.5" stroke="#4472C4" stroke-width="0.666667" stroke-miterlimit="8" fill="none" fill-rule="evenodd"/><path d="M0 0 337.173 46.08" stroke="#4472C4" stroke-width="0.666667" stroke-miterlimit="8" fill="none" fill-rule="evenodd" transform="matrix(1 0 0 -1 270.5 360.58)"/><path d="M0 0 73.9066 101.653" stroke="#4472C4" stroke-width="0.666667" stroke-miterlimit="8" fill="none" fill-rule="evenodd" transform="matrix(-1 -8.74228e-08 -8.74228e-08 1 287.407 212.5)"/><path d="M287.5 212.5 608.073 314.153" stroke="#4472C4" stroke-width="0.666667" stroke-miterlimit="8" fill="none" fill-rule="evenodd"/><path d="M267.5 314.5C267.5 205.148 331.523 116.5 410.5 116.5 489.477 116.5 553.5 205.148 553.5 314.5 553.5 423.852 489.477 512.5 410.5 512.5 331.523 512.5 267.5 423.852 267.5 314.5Z" stroke="#4472C4" stroke-width="0.666667" stroke-miterlimit="8" fill="none" fill-rule="evenodd"/><path d="M314.5 314.5C314.5 205.148 357.257 116.5 410 116.5 462.743 116.5 505.5 205.148 505.5 314.5 505.5 423.852 462.743 512.5 410 512.5 357.257 512.5 314.5 423.852 314.5 314.5Z" stroke="#4472C4" stroke-width="0.666667" stroke-miterlimit="8" fill="none" fill-rule="evenodd"/><path d="M254.5 314.5C254.5 205.148 324.344 116.5 410.5 116.5 496.656 116.5 566.5 205.148 566.5 314.5 566.5 423.852 496.656 512.5 410.5 512.5 324.344 512.5 254.5 423.852 254.5 314.5Z" stroke="#4472C4" stroke-width="0.666667" stroke-miterlimit="8" fill="none" fill-rule="evenodd"/><path d="M352.5 314.5C352.5 205.148 378.244 116.5 410 116.5 441.756 116.5 467.5 205.148 467.5 314.5 467.5 423.852 441.756 512.5 410 512.5 378.244 512.5 352.5 423.852 352.5 314.5Z" stroke="#4472C4" stroke-width="0.666667" stroke-miterlimit="8" fill="none" fill-rule="evenodd"/><path d="M0 0 246.307 101.653" stroke="#4472C4" stroke-width="0.666667" stroke-miterlimit="8" fill="none" fill-rule="evenodd" transform="matrix(-1 -8.74228e-08 -8.74228e-08 1 458.807 212.5)"/><path d="M0 0 221.196 180.364" stroke="#4472C4" stroke-width="0.666667" stroke-miterlimit="8" fill="none" fill-rule="evenodd" transform="matrix(-1 -8.74228e-08 -8.74228e-08 1 433.696 134.5)"/><path d="M458.5 212.5 608.007 314.153" stroke="#4472C4" stroke-width="0.666667" stroke-miterlimit="8" fill="none" fill-rule="evenodd"/><path d="M433.5 134.5 608.118 314.864" stroke="#4472C4" stroke-width="0.666667" stroke-miterlimit="8" fill="none" fill-rule="evenodd"/><path d="M0 0 286.44 74.4533" stroke="#4472C4" stroke-width="0.666667" stroke-miterlimit="8" fill="none" fill-rule="evenodd" transform="matrix(-1 -8.74228e-08 -8.74228e-08 1 498.94 239.5)"/><path d="M434.5 222.5 608.213 314.42" stroke="#4472C4" stroke-width="0.666667" stroke-miterlimit="8" fill="none" fill-rule="evenodd"/><path d="M382.5 314.5C382.5 205.148 394.812 116.5 410 116.5 425.188 116.5 437.5 205.148 437.5 314.5 437.5 423.852 425.188 512.5 410 512.5 394.812 512.5 382.5 423.852 382.5 314.5Z" stroke="#4472C4" stroke-width="0.666667" stroke-miterlimit="8" fill="none" fill-rule="evenodd"/><path d="M396.647 483.913 212.5 314.5" stroke="#4472C4" stroke-width="0.666667" stroke-miterlimit="8" fill="none" fill-rule="evenodd"/><path d="M0 0 211.438 169.413" stroke="#4472C4" stroke-width="0.666667" stroke-miterlimit="8" fill="none" fill-rule="evenodd" transform="matrix(1 0 0 -1 396.5 483.913)"/><path d="M386.953 410.753 212.5 314.5" stroke="#4472C4" stroke-width="0.666667" stroke-miterlimit="8" fill="none" fill-rule="evenodd"/><path d="M0 0 222.265 96.2534" stroke="#4472C4" stroke-width="0.666667" stroke-miterlimit="8" fill="none" fill-rule="evenodd" transform="matrix(1 0 0 -1 385.5 410.753)"/><path d="M434.6 388.953 212.5 314.5" stroke="#4472C4" stroke-width="0.666667" stroke-miterlimit="8" fill="none" fill-rule="evenodd"/><path d="M0 0 250.396 79.7468" stroke="#4472C4" stroke-width="0.666667" stroke-miterlimit="8" fill="none" fill-rule="evenodd" transform="matrix(1 0 0 -1 357.5 394.247)"/><path d="M211.5 314.5C211.5 205.148 300.372 116.5 410 116.5 519.629 116.5 608.5 205.148 608.5 314.5 608.5 423.852 519.629 512.5 410 512.5 300.372 512.5 211.5 423.852 211.5 314.5Z" stroke="#4472C4" stroke-width="0.666667" stroke-miterlimit="8" fill="none" fill-rule="evenodd"/><path d="M357 394C357.984 401.189 358.968 408.377 360.374 416.11 361.779 423.843 363.663 432.916 365.434 440.398 367.205 447.879 369.102 454.44 371 461" stroke="#2F528F" stroke-width="2" stroke-miterlimit="8" fill="none" fill-rule="evenodd"/><path d="M435 389C434.504 396.032 434.008 403.063 433.425 410.012 432.842 416.961 432.404 422.862 431.5 430.693 430.596 438.525 429.298 447.762 428 457" stroke="#2F528F" stroke-width="2" stroke-miterlimit="8" fill="none" fill-rule="evenodd"/><path d="M386 410C386.625 418.344 387.25 426.687 388.167 435.115 389.083 443.542 390.195 452.583 391.5 460.564 392.806 468.545 394.403 475.773 396 483" stroke="#2F528F" stroke-width="2" stroke-miterlimit="8" fill="none" fill-rule="evenodd"/><path d="M357 394 386 410" stroke="#2F528F" stroke-width="2" stroke-miterlimit="8" fill="none" fill-rule="evenodd"/><path d="M434 389 386 410" stroke="#2F528F" stroke-width="2" stroke-miterlimit="8" fill="none" fill-rule="evenodd"/><path d="M357 394 405 379" stroke="#2F528F" stroke-width="2" stroke-miterlimit="8" fill="none" fill-rule="evenodd"/><path d="M434 389 404 378" stroke="#2F528F" stroke-width="2" stroke-miterlimit="8" fill="none" fill-rule="evenodd"/><path d="M371 461 396 483" stroke="#2F528F" stroke-width="2" stroke-miterlimit="8" fill="none" fill-rule="evenodd"/><path d="M428 458 396 483" stroke="#2F528F" stroke-width="2" stroke-miterlimit="8" fill="none" fill-rule="evenodd"/><path d="M423 142C424.326 148.1 425.651 154.199 426.892 161.585 428.133 168.971 429.262 176.246 430.446 186.315 431.631 196.384 432.815 209.192 434 222" stroke="#2F528F" stroke-width="2" stroke-miterlimit="8" fill="none" fill-rule="evenodd"/><path d="M433 134C435.59 138.301 438.181 142.602 440.566 147.774 442.951 152.947 444.979 157.898 447.309 165.034 449.639 172.17 452.764 182.764 454.546 190.591 456.328 198.419 457.164 205.21 458 212" stroke="#2F528F" stroke-width="2" stroke-miterlimit="8" fill="none" fill-rule="evenodd"/><path d="M423 142 433 134" stroke="#2F528F" stroke-width="2" stroke-miterlimit="8" fill="none" fill-rule="evenodd"/><path d="M481 184C482.975 188.597 484.95 193.194 486.838 198.535 488.727 203.875 490.473 209.298 492.333 216.042 494.194 222.786 496.097 230.893 498 239" stroke="#2F528F" stroke-width="2" stroke-miterlimit="8" fill="none" fill-rule="evenodd"/><path d="M434 223 459 213" stroke="#2F528F" stroke-width="2" stroke-miterlimit="8" fill="none" fill-rule="evenodd"/><path d="M498 240 458 213" stroke="#2F528F" stroke-width="2" stroke-miterlimit="8" fill="none" fill-rule="evenodd"/><path d="M434 223 477 245" stroke="#2F528F" stroke-width="2" stroke-miterlimit="8" fill="none" fill-rule="evenodd"/><path d="M477 245 498 240" stroke="#2F528F" stroke-width="2" stroke-miterlimit="8" fill="none" fill-rule="evenodd"/><path d="M433 134 481 184" stroke="#2F528F" stroke-width="2" stroke-miterlimit="8" fill="none" fill-rule="evenodd"/><path d="M287 212C284.107 218.464 281.213 224.928 278.589 233.843 275.966 242.759 273.126 254.238 271.257 265.494 269.388 276.75 267.986 290.086 267.375 301.38 266.764 312.673 266.944 323.483 267.591 333.253 268.238 343.023 269.748 351.512 271.257 360" stroke="#2F528F" stroke-width="2" stroke-miterlimit="8" fill="none" fill-rule="evenodd"/><path d="M325 224C322.616 233.656 320.233 243.313 318.593 254.026 316.953 264.739 315.923 277.787 315.16 288.278 314.398 298.768 313.902 306.182 314.016 316.969 314.131 327.756 314.989 340.378 315.847 353" stroke="#2F528F" stroke-width="2" stroke-miterlimit="8" fill="none" fill-rule="evenodd"/><path d="M287 213 325 224" stroke="#2F528F" stroke-width="2" stroke-miterlimit="8" fill="none" fill-rule="evenodd"/><path d="M271 360 316 354" stroke="#2F528F" stroke-width="2" stroke-miterlimit="8" fill="none" fill-rule="evenodd"/><path d="M256.412 349C255.524 343.911 254.636 338.822 254.313 330.363 253.99 321.904 253.748 309.479 254.475 298.247 255.201 287.015 257.085 272.011 258.672 262.97 260.26 253.929 262.13 248.964 264 244" stroke="#2F528F" stroke-width="2" stroke-miterlimit="8" fill="none" fill-rule="evenodd"/><path d="M287 213 264 244" stroke="#2F528F" stroke-width="2" stroke-miterlimit="8" fill="none" fill-rule="evenodd"/><path d="M271 360 256 349" stroke="#2F528F" stroke-width="2" stroke-miterlimit="8" fill="none" fill-rule="evenodd"/></g></svg>