<svg width="424" height="423" xmlns="http://www.w3.org/2000/svg" xmlns:xlink="http://www.w3.org/1999/xlink" overflow="hidden"><defs><clipPath id="clip0"><path d="M199 97 623 97 623 520 199 520Z" fill-rule="evenodd" clip-rule="evenodd"/></clipPath></defs><g clip-path="url(#clip0)" transform="translate(-199 -97)"><path d="M267.5 314.5C267.5 205.148 331.523 116.5 410.5 116.5 489.477 116.5 553.5 205.148 553.5 314.5 553.5 423.852 489.477 512.5 410.5 512.5 331.523 512.5 267.5 423.852 267.5 314.5Z" stroke="#4472C4" stroke-width="0.666667" stroke-miterlimit="8" fill="none" fill-rule="evenodd"/><path d="M382.5 314.5C382.5 205.148 394.812 116.5 410 116.5 425.188 116.5 437.5 205.148 437.5 314.5 437.5 423.852 425.188 512.5 410 512.5 394.812 512.5 382.5 423.852 382.5 314.5Z" stroke="#4472C4" stroke-width="0.666667" stroke-miterlimit="8" fill="none" fill-rule="evenodd"/><path d="M213.5 314.5C213.5 205.148 301.924 116.5 411 116.5 520.076 116.5 608.5 205.148 608.5 314.5 608.5 423.852 520.076 512.5 411 512.5 301.924 512.5 213.5 423.852 213.5 314.5Z" stroke="#4472C4" stroke-width="0.666667" stroke-miterlimit="8" fill="none" fill-rule="evenodd"/><path d="M410.5 172.5C519.852 172.5 608.5 236.523 608.5 315.5 608.5 394.477 519.852 458.5 410.5 458.5 301.148 458.5 212.5 394.477 212.5 315.5 212.5 236.523 301.148 172.5 410.5 172.5Z" stroke="#4472C4" stroke-width="0.666667" stroke-miterlimit="8" fill="none" fill-rule="evenodd"/><path d="M410.5 219.5C519.852 219.5 608.5 262.257 608.5 315 608.5 367.743 519.852 410.5 410.5 410.5 301.148 410.5 212.5 367.743 212.5 315 212.5 262.257 301.148 219.5 410.5 219.5Z" stroke="#4472C4" stroke-width="0.666667" stroke-miterlimit="8" fill="none" fill-rule="evenodd"/><path d="M410.5 159.5C519.852 159.5 608.5 229.344 608.5 315.5 608.5 401.656 519.852 471.5 410.5 471.5 301.148 471.5 212.5 401.656 212.5 315.5 212.5 229.344 301.148 159.5 410.5 159.5Z" stroke="#4472C4" stroke-width="0.666667" stroke-miterlimit="8" fill="none" fill-rule="evenodd"/><path d="M410.5 257.5C519.852 257.5 608.5 283.244 608.5 315 608.5 346.756 519.852 372.5 410.5 372.5 301.148 372.5 212.5 346.756 212.5 315 212.5 283.244 301.148 257.5 410.5 257.5Z" stroke="#4472C4" stroke-width="0.666667" stroke-miterlimit="8" fill="none" fill-rule="evenodd"/><path d="M410.5 273.5C519.852 273.5 608.5 292.08 608.5 315 608.5 337.92 519.852 356.5 410.5 356.5 301.148 356.5 212.5 337.92 212.5 315 212.5 292.08 301.148 273.5 410.5 273.5Z" stroke="#4472C4" stroke-width="0.666667" stroke-miterlimit="8" fill="none" fill-rule="evenodd"/><path d="M0 0 139.942 40.5408" stroke="#4472C4" stroke-width="0.666667" stroke-miterlimit="8" fill="none" fill-rule="evenodd" transform="matrix(-1 -8.74228e-08 -8.74228e-08 1 410.442 315.5)"/><path d="M0 0 26.399 55.8199" stroke="#4472C4" stroke-width="0.666667" stroke-miterlimit="8" fill="none" fill-rule="evenodd" transform="matrix(-1 -8.74228e-08 -8.74228e-08 1 410.899 315.5)"/><path d="M0 0 24.1769 95.2867" stroke="#4472C4" stroke-width="0.666667" stroke-miterlimit="8" fill="none" fill-rule="evenodd" transform="matrix(-1 -8.74228e-08 -8.74228e-08 1 410.677 315.5)"/><path d="M0 0 29.7668 29.6884" stroke="#4472C4" stroke-width="0.666667" stroke-miterlimit="8" fill="none" fill-rule="evenodd" transform="matrix(-1 -8.74228e-08 -8.74228e-08 1 324.267 401.5)"/><path d="M409.5 315.5 524.572 431.698" stroke="#4472C4" stroke-width="0.666667" stroke-miterlimit="8" fill="none" fill-rule="evenodd"/><path d="M325.5 314.5C325.5 205.148 364.004 116.5 411.5 116.5 458.997 116.5 497.5 205.148 497.5 314.5 497.5 423.852 458.997 512.5 411.5 512.5 364.004 512.5 325.5 423.852 325.5 314.5Z" stroke="#4472C4" stroke-width="0.666667" stroke-miterlimit="8" fill="none" fill-rule="evenodd"/><path d="M0 0 140.253 40.5409" stroke="#4472C4" stroke-width="0.666667" stroke-miterlimit="8" fill="none" fill-rule="evenodd" transform="matrix(1 0 0 -1 410.5 315.041)"/><path d="M0 0 84.7121 51.6985" stroke="#4472C4" stroke-width="0.666667" stroke-miterlimit="8" fill="none" fill-rule="evenodd" transform="matrix(1 0 0 -1 410.5 315.199)"/><path d="M0 0 45.1564 169.92" stroke="#4472C4" stroke-width="0.666667" stroke-miterlimit="8" fill="none" fill-rule="evenodd" transform="matrix(1 0 0 -1 410.5 315.42)"/><path d="M410.5 140.5C519.852 140.5 608.5 218.85 608.5 315.5 608.5 412.15 519.852 490.5 410.5 490.5 301.148 490.5 212.5 412.15 212.5 315.5 212.5 218.85 301.148 140.5 410.5 140.5Z" stroke="#4472C4" stroke-width="0.666667" stroke-miterlimit="8" fill="none" fill-rule="evenodd"/><path d="M342.5 314.5C342.5 205.148 373.169 116.5 411 116.5 448.832 116.5 479.5 205.148 479.5 314.5 479.5 423.852 448.832 512.5 411 512.5 373.169 512.5 342.5 423.852 342.5 314.5Z" stroke="#4472C4" stroke-width="0.666667" stroke-miterlimit="8" fill="none" fill-rule="evenodd"/><path d="M391.5 314.5C391.5 205.148 399.559 116.5 409.5 116.5 419.441 116.5 427.5 205.148 427.5 314.5 427.5 423.852 419.441 512.5 409.5 512.5 399.559 512.5 391.5 423.852 391.5 314.5Z" stroke="#4472C4" stroke-width="0.666667" stroke-miterlimit="8" fill="none" fill-rule="evenodd"/><path d="M270 355C289.622 359.463 309.243 363.925 328.076 366.592 346.91 369.259 364.955 370.129 383 371" stroke="#2F528F" stroke-width="2" stroke-miterlimit="8" fill="none" fill-rule="evenodd"/><path d="M276 385C292.441 390.927 308.881 396.853 327.215 400.853 345.548 404.853 365.774 406.927 386 409" stroke="#2F528F" stroke-width="2" stroke-miterlimit="8" fill="none" fill-rule="evenodd"/><path d="M276 385C274.389 379.167 272.778 373.333 271.778 368.333 270.778 363.333 270.389 359.167 270 355" stroke="#2F528F" stroke-width="2" stroke-miterlimit="8" fill="none" fill-rule="evenodd"/><path d="M385 409 383 372" stroke="#2F528F" stroke-width="2" stroke-miterlimit="8" fill="none" fill-rule="evenodd"/><path d="M295 348C311.056 350.076 327.111 352.152 343.111 353.486 359.111 354.819 375.056 355.409 391 356" stroke="#2F528F" stroke-width="2" stroke-miterlimit="8" fill="none" fill-rule="evenodd"/><path d="M271 355 295 348" stroke="#2F528F" stroke-width="2" stroke-miterlimit="8" fill="none" fill-rule="evenodd"/><path d="M383 371 391 356" stroke="#2F528F" stroke-width="2" stroke-miterlimit="8" fill="none" fill-rule="evenodd"/><path d="M386 409 393 384" stroke="#2F528F" stroke-width="2" stroke-miterlimit="8" fill="none" fill-rule="evenodd"/><path d="M391 356 393 383" stroke="#2F528F" stroke-width="2" stroke-miterlimit="8" fill="none" fill-rule="evenodd"/><path d="M495 263C493.696 252.041 492.393 241.083 489.051 227.054 485.709 213.026 480.458 192.672 474.949 178.829 469.441 164.987 462.72 154.493 456 144" stroke="#2F528F" stroke-width="2" stroke-miterlimit="8" fill="none" fill-rule="evenodd"/><path d="M549 274C547.994 265.288 546.989 256.576 543.076 243.971 539.163 231.367 530.935 210.088 525.523 198.373 520.111 186.658 515.357 180.578 510.603 173.683 505.849 166.787 501.425 161.893 497 157" stroke="#2F528F" stroke-width="2" stroke-miterlimit="8" fill="none" fill-rule="evenodd"/><path d="M456 144C463.049 145.606 470.098 147.213 476.765 149.379 483.432 151.546 489.716 154.273 496 157" stroke="#2F528F" stroke-width="2" stroke-miterlimit="8" fill="none" fill-rule="evenodd"/><path d="M495 263C504.11 264.26 513.22 265.521 522.22 267.354 531.219 269.187 540.11 271.594 549 274" stroke="#2F528F" stroke-width="2" stroke-miterlimit="8" fill="none" fill-rule="evenodd"/><path d="M456 144 452 157" stroke="#2F528F" stroke-width="2" stroke-miterlimit="8" fill="none" fill-rule="evenodd"/><path d="M410.5 270.5C519.852 270.5 608.5 290.2 608.5 314.5 608.5 338.801 519.852 358.5 410.5 358.5 301.148 358.5 212.5 338.801 212.5 314.5 212.5 290.2 301.148 270.5 410.5 270.5Z" stroke="#4472C4" stroke-width="0.666667" stroke-miterlimit="8" fill="none" fill-rule="evenodd"/><path d="M477 274C475.605 257.193 474.21 240.386 471.348 224.08 468.486 207.774 463.051 187.346 459.826 176.166 456.601 164.986 454.301 160.993 452 157" stroke="#2F528F" stroke-width="2" stroke-miterlimit="8" fill="none" fill-rule="evenodd"/><path d="M478 273 507.742 275.769C516.742 276.769 524.371 277.885 532 279" stroke="#2F528F" stroke-width="2" stroke-miterlimit="8" fill="none" fill-rule="evenodd"/><path d="M477 273 495 262" stroke="#2F528F" stroke-width="2" stroke-miterlimit="8" fill="none" fill-rule="evenodd"/><path d="M532 279 550 274" stroke="#2F528F" stroke-width="2" stroke-miterlimit="8" fill="none" fill-rule="evenodd"/><path d="M324 401 294 430" stroke="#2F528F" stroke-width="2" stroke-miterlimit="8" fill="none" fill-rule="evenodd"/><path d="M525 430.845C507.685 438.235 490.369 445.625 474.223 449.933 458.077 454.24 446.886 456.155 428.124 456.69 409.361 457.224 384 457.59 361.646 453.142 339.292 448.694 316.646 439.347 294 430" stroke="#2F528F" stroke-width="2" stroke-miterlimit="8" fill="none" fill-rule="evenodd"/><path d="M464 370C452.084 370.79 440.168 371.58 428.334 371.865 416.501 372.15 404.75 371.93 393 371.709" stroke="#2F528F" stroke-width="2" stroke-miterlimit="8" fill="none" fill-rule="evenodd"/><path d="M525 431 464 370" stroke="#2F528F" stroke-width="2" stroke-miterlimit="8" fill="none" fill-rule="evenodd"/><path d="M303 446C312.304 450.255 321.608 454.51 332.241 457.975 342.875 461.44 354.145 464.628 366.799 466.79 379.454 468.952 395.459 470.643 408.169 470.948 420.879 471.252 431.54 470.199 443.06 468.619 454.579 467.039 465.295 465.071 477.285 461.467 489.275 457.864 502.138 452.431 515 446.998" stroke="#2F528F" stroke-width="2" stroke-miterlimit="8" fill="none" fill-rule="evenodd"/><path d="M525 431C523.553 433.754 522.105 436.507 520.439 439.174 518.772 441.841 516.886 444.42 515 447" stroke="#2F528F" stroke-width="2" stroke-miterlimit="8" fill="none" fill-rule="evenodd"/><path d="M294 430C295.623 433.214 297.246 436.428 298.912 439.095 300.579 441.761 302.289 443.881 304 446" stroke="#2F528F" stroke-width="2" stroke-miterlimit="8" fill="none" fill-rule="evenodd"/></g></svg>