<svg width="312" height="325" xmlns="http://www.w3.org/2000/svg" xmlns:xlink="http://www.w3.org/1999/xlink" overflow="hidden"><defs><clipPath id="clip0"><path d="M745 166 1057 166 1057 491 745 491Z" fill-rule="evenodd" clip-rule="evenodd"/></clipPath></defs><g clip-path="url(#clip0)" transform="translate(-745 -166)"><path d="M885.929 209.059C896.079 208.635 900.855 210.573 907.422 212.693 913.99 214.813 921.214 219.356 925.333 221.779 929.453 224.202 929.632 225.111 932.139 227.231 934.647 229.351 936.975 230.502 940.378 234.499 943.781 238.497 948.856 244.978 952.558 251.217 956.259 257.456 959.961 265.876 962.588 271.933 965.215 277.991 966.469 279.566 968.319 287.561 970.17 295.557 973.036 308.58 973.693 319.907 974.349 331.234 973.991 343.955 972.26 355.524 970.528 367.094 967.543 378.723 963.304 389.324 959.065 399.924 953.573 410.403 946.826 419.126 940.08 427.848 930.408 436.389 922.826 441.659 915.244 446.929 909.99 449.17 901.333 450.745 892.676 452.32 880.914 452.38 870.884 451.108 860.854 449.836 851.182 447.534 841.152 443.113 831.122 438.691 820.256 432.997 810.704 424.577 801.152 416.158 790.405 403.013 783.838 392.595 777.271 382.176 774.106 372.545 771.3 362.066 768.494 351.587 766.942 340.502 767.002 329.72 767.061 318.938 768.435 308.398 771.658 297.374 774.882 286.35 779.42 274.114 786.345 263.574 793.271 253.035 803.181 242.192 813.212 234.136 823.242 226.08 834.466 219.477 846.526 215.237 858.586 210.997 875.78 209.483 885.929 209.059Z" stroke="#2F528F" stroke-width="2" stroke-miterlimit="8" fill="#DAE3F3" fill-rule="evenodd"/><path d="M800 330.5C800 263.397 838.951 209 887 209 935.049 209 974 263.397 974 330.5 974 397.603 935.049 452 887 452 838.951 452 800 397.603 800 330.5Z" stroke="#2F528F" stroke-width="2" stroke-miterlimit="8" fill="none" fill-rule="evenodd"/><path d="M802.5 311.5 972.476 349.98" stroke="#4472C4" stroke-width="0.666667" stroke-miterlimit="8" stroke-dasharray="2.66667 2" fill="none" fill-rule="evenodd"/><path d="M0 0 0.000104987 323.178" stroke="#4472C4" stroke-width="0.666667" stroke-miterlimit="8" stroke-dasharray="2.66667 2" fill="none" fill-rule="evenodd" transform="matrix(1 0 0 -1 887.5 490.678)"/><path d="M884.5 331C884.5 329.619 885.619 328.5 887 328.5 888.381 328.5 889.5 329.619 889.5 331 889.5 332.381 888.381 333.5 887 333.5 885.619 333.5 884.5 332.381 884.5 331Z" stroke="#2F528F" stroke-width="3" stroke-miterlimit="8" fill="#2F5597" fill-rule="evenodd"/><path d="M766 330C766.351 332.172 766.702 334.344 768.592 336.436 770.481 338.528 773.181 340.566 777.338 342.55 781.495 344.535 787.164 346.626 793.535 348.342 799.906 350.059 806.709 351.507 815.563 352.848 824.418 354.188 835.54 355.529 846.662 356.387 857.784 357.245 869.932 357.943 882.296 357.996 894.66 358.05 908.535 357.514 920.845 356.709 933.155 355.905 947.462 354.457 956.155 353.169 964.847 351.882 968.924 350.434 973 348.986" stroke="#2F528F" stroke-width="2" stroke-miterlimit="8" fill="none" fill-rule="evenodd"/><path d="M775.282 351.589C771.134 324.063 782.037 299.599 799.635 296.947 817.233 294.295 834.861 314.46 839.009 341.986 843.156 369.513 832.253 393.977 814.655 396.628 797.058 399.28 779.43 379.115 775.282 351.589Z" stroke="#2F528F" stroke-width="2" stroke-miterlimit="8" fill="#FFFFFF" fill-rule="evenodd"/><path d="M0 0 169.976 38.4798" stroke="#4472C4" stroke-width="0.666667" stroke-miterlimit="8" stroke-dasharray="2.66667 2" fill="none" fill-rule="evenodd" transform="matrix(1 0 0 -1 802.5 349.98)"/><path d="M887.5 303.5C953.774 303.5 1007.5 315.812 1007.5 331 1007.5 346.188 953.774 358.5 887.5 358.5 821.226 358.5 767.5 346.188 767.5 331 767.5 315.812 821.226 303.5 887.5 303.5Z" stroke="#4472C4" stroke-width="0.666667" stroke-miterlimit="8" stroke-dasharray="2.66667 2" fill="none" fill-rule="evenodd"/><path d="M886.5 330.5 1056.48 368.98" stroke="#4472C4" stroke-width="0.666667" stroke-miterlimit="8" stroke-dasharray="2.66667 2" fill="none" fill-rule="evenodd"/><path d="M840.409 356C836.398 357.732 832.387 359.463 829.646 361.044 826.904 362.624 825.381 363.969 823.959 365.483 822.538 366.996 821.319 368.643 821.116 370.123 820.913 371.602 820.744 372.779 822.741 374.36 824.738 375.94 828.258 378.16 833.098 379.606 837.939 381.051 843.083 382.329 851.782 383.035 860.481 383.741 871.719 384.28 885.292 383.842 898.865 383.405 917.819 382.094 933.22 380.413 948.621 378.731 964.699 376.142 977.696 373.755 990.694 371.367 1003.49 368.105 1011.21 366.088 1018.92 364.07 1021.46 362.86 1024 361.649" stroke="#2F528F" stroke-width="2" stroke-miterlimit="8" fill="none" fill-rule="evenodd"/><path d="M774 340C770.168 339.49 766.337 338.98 762.556 338.093 758.776 337.206 753.991 336.002 751.317 334.68 748.643 333.359 747.315 331.519 746.515 330.164 745.714 328.809 745.953 327.838 746.515 326.55 747.077 325.262 748.013 323.94 749.886 322.435 751.76 320.929 754.774 319.089 757.754 317.517 760.734 315.944 764.251 314.472 767.767 313" stroke="#2F528F" stroke-width="2" stroke-miterlimit="8" fill="none" fill-rule="evenodd"/><path d="M803.532 295.982C800.585 296.016 797.637 296.05 794.437 295.575 791.236 295.101 787.531 294.66 784.33 293.133 781.13 291.607 777.29 289.3 775.235 286.417 773.18 283.534 772.034 279.802 772.001 275.834 771.967 271.865 773.18 267.048 775.033 262.605 776.885 258.161 779.479 253.853 783.118 249.172 786.756 244.491 791.405 239.335 796.862 234.519 802.32 229.702 808.316 225.123 815.862 220.272 823.408 215.421 834.323 209.146 842.139 205.415 849.954 201.684 855.445 199.954 862.755 197.885 870.066 195.815 878.033 194.408 886 193" stroke="#2F528F" stroke-width="2" stroke-miterlimit="8" fill="none" fill-rule="evenodd"/><path d="M886.5 191.5 892.5 193 886.5 194.5Z" stroke="#2F528F" stroke-width="1.33333" stroke-miterlimit="8" fill="#4472C4" fill-rule="evenodd"/><path d="M886.2 468.21C840.389 473.216 803.282 453.199 803.32 423.502 803.332 414.488 806.839 405.236 813.52 396.598" stroke="#2F528F" stroke-width="2" stroke-miterlimit="8" fill="none" fill-rule="evenodd"/><path d="M884.5 467.5 890.5 469 884.5 470.5Z" stroke="#2F528F" stroke-width="1.33333" stroke-miterlimit="8" fill="#4472C4" fill-rule="evenodd"/><path d="M1021.64 360.518 1027.37 359.277 1023.39 363.59Z" stroke="#2F528F" stroke-width="1.33333" stroke-miterlimit="8" fill="#4472C4" fill-rule="evenodd"/></g></svg>